<svg width="891" height="591" viewBox="0 0 891 591" fill="none" xmlns="http://www.w3.org/2000/svg">
<g clip-path="url(#clip0_4003_921)">
<path d="M344.482 53.3931H236.382C232.674 53.3931 229.656 50.3853 229.656 46.6884C229.656 42.9916 232.674 39.9838 236.382 39.9838H344.482C348.19 39.9838 351.207 42.9916 351.207 46.6884C351.207 50.3853 348.19 53.3931 344.482 53.3931Z" fill="#E6E7E8"/>
<path d="M428.843 76.0858H236.382C232.674 76.0858 229.656 73.078 229.656 69.3812C229.656 65.6843 232.674 62.6765 236.382 62.6765H428.843C432.551 62.6765 435.569 65.6843 435.569 69.3812C435.569 73.078 432.551 76.0858 428.843 76.0858Z" fill="#E6E7E8"/>
<path d="M428.843 98.5744H236.382C232.674 98.5744 229.656 95.5666 229.656 91.8697C229.656 88.1729 232.674 85.165 236.382 85.165H428.843C432.551 85.165 435.569 88.1729 435.569 91.8697C435.569 95.5666 432.551 98.5744 428.843 98.5744Z" fill="#E6E7E8"/>
<path d="M449.229 215.277V212.065C412.03 212.065 379.545 181.773 370.909 139.578L384.925 143.173C378.146 136.77 371.297 126.052 367.049 117.292C364.539 126.696 359.852 138.514 354.413 146.081L367.675 139.819C376.493 183.717 410.374 215.277 449.229 215.277Z" fill="#1D1D1D"/>
<path d="M435.159 92.3315C435.159 95.8743 432.267 98.7568 428.713 98.7568H344.921C341.367 98.7568 338.476 95.8743 338.476 92.3315C338.476 88.7886 341.367 85.9062 344.921 85.9062H428.713C432.267 85.9062 435.159 88.7886 435.159 92.3315Z" fill="#D79131"/>
<path d="M57.8545 450.249C56.5789 445.821 54.3946 442.044 51.794 439.35L42.3454 396.413L21.75 401.443L33.5521 444.457C32.776 448.096 32.9313 452.441 34.2069 456.868C37.1209 466.984 44.7769 473.702 51.307 471.874C57.8371 470.046 60.7685 460.364 57.8545 450.249Z" fill="#FFB6B6"/>
<path d="M55.0056 168.594C55.0056 168.594 32.7606 167.829 19.8695 182.286C5.10029 200.271 -4.99515 270.741 2.58353 275.487L23.1169 420.836L52.397 416.825L44.8824 242.428L55.0056 168.594Z" fill="#D79131"/>
<path d="M205.179 413.596L199.849 590.995H123.308L120.215 522.613L106.615 590.995H24.5791L34.8114 473.444L45.382 448.722L52.5366 431.968L205.179 413.596Z" fill="#1D1D1D"/>
<path d="M144.385 139.617L91.2098 136.405L73.4845 158.893C58.1759 162.161 44.3488 166.379 34.8113 173.35C37.0931 240.697 32.0806 328.267 52.5366 345.227L34.3721 473.031C34.3721 473.031 41.6973 466.774 53.9338 468.983C58.1611 469.746 63.2642 479.239 68.4587 479.815C108.372 484.235 173.098 479.689 205.179 413.597L192.727 317.919L195.95 178.169C185.875 170.23 173.349 165.071 158.888 162.106L144.385 139.617Z" fill="#D79131"/>
<path d="M246.757 100.521C247.334 106.09 246.601 111.328 244.914 115.527L253.772 168.233L228.49 171.701L222.226 117.862C219.714 114.096 217.923 109.118 217.346 103.549C216.028 90.8267 221.543 79.8353 229.665 78.9992C237.787 78.1631 245.439 87.7988 246.757 100.521Z" fill="#FFB6B6"/>
<path d="M162.703 182.196C160.056 186.089 160.793 190.466 160.161 195.724C157.478 218.046 200.388 284.007 230.079 291.602C233.976 292.599 236.195 296.788 240.128 297.631C251.777 300.127 262.624 290.909 261.995 279.048L253.93 126.916L220.047 138.436L222.216 217.42C222 201.057 206.927 184.396 195.511 177.467C195.511 177.467 172.386 167.954 162.703 182.196Z" fill="#D79131"/>
<path d="M123.316 132.248C149.184 132.248 170.155 111.343 170.155 85.5556C170.155 59.7682 149.184 38.8634 123.316 38.8634C97.4472 38.8634 76.4766 59.7682 76.4766 85.5556C76.4766 111.343 97.4472 132.248 123.316 132.248Z" fill="#FFB6B6"/>
<path d="M166.945 51.2695C166.542 51.3659 173.11 44.9836 173.39 44.8442C179.836 41.6315 173.213 73.0352 168.556 72.1517C157.099 69.9831 152.152 65.6781 147.705 76.4244C146.464 79.4122 145.691 82.7855 143.274 84.922C139.954 87.8294 134.443 87.5884 131.736 91.0581C129.561 93.8531 130.189 97.9653 131.801 101.114C133.412 104.278 135.861 106.961 137.328 110.189C138.971 113.82 131.962 125.369 129.287 131.859V131.875L129.271 131.913C128.56 133.615 126.871 128.712 125.088 128.222C122.954 127.636 119.81 132.659 116.412 131.746C116.396 131.746 116.38 131.73 116.363 131.73C113.125 130.831 109.515 129.867 105.938 128.903H105.922C95.8505 126.172 93.3045 130.092 92.8211 129.979L86.5689 123.458C84.4233 121.9 84.6658 116.873 83.1528 115.522C81.9155 114.418 78.8308 116.97 77.9216 115.908C73.464 110.704 72.4383 105.498 69.8105 95.2185C67.4096 85.8215 62.4304 57.6947 72.6627 56.4257C82.3149 55.221 75.257 41.8242 84.9737 42.3222C84.3936 39.8806 85.4732 37.2623 87.2296 35.4632C88.9699 33.648 91.2903 32.5236 93.6268 31.5598C105.148 26.8694 103.231 22.8376 115.38 25.5683C116.589 23.8816 132.086 19.4846 134.278 20.0468C134.439 20.0789 130.898 26.9337 139.551 25.5683C139.229 27.5441 143.946 23.2595 144.385 30.3872C153.614 24.8658 158.582 38.0815 158.888 40.0252C159.291 42.4507 155.617 41.2138 158.066 41.5833C159.516 41.8082 161.998 44.7478 161.756 46.2095C162.803 44.7959 163.851 43.3984 164.914 41.9848C165.108 42.0009 165.285 42.0331 165.478 42.0651C170.377 42.9968 164.761 58.9604 164.963 53.9841C165.333 44.8442 171.827 50.1932 166.945 51.2695Z" fill="#1D1D1D"/>
<path d="M764.392 41.6966C762.661 55.8761 760.77 70.0362 758.72 84.1733C757.887 89.9151 757.006 95.73 754.689 101.052C753.107 104.684 750.891 108.002 748.688 111.297C746.084 115.191 743.438 119.134 739.901 122.212C736.365 125.29 731.772 127.451 727.092 127.09C739.51 118.757 747.856 104.663 749.174 89.7983C749.794 82.8112 748.944 75.7877 748.781 68.7752C748.617 61.7627 749.206 54.5061 752.452 48.2825C755.698 42.0588 762.109 37.0769 769.143 37.2538L764.392 41.6966Z" fill="#1D1D1D"/>
<path d="M638.539 344.124C628.435 352.294 616.016 353.72 610.801 347.31C605.586 340.9 609.55 329.082 619.654 320.912C624.077 317.336 628.943 315.053 633.455 314.152L676.705 280.072L692.316 300.645L648.023 332.058C646.208 336.273 642.962 340.548 638.539 344.124Z" fill="#A0616A"/>
<path d="M646.709 297.858L711.153 236.901L717.599 232.082C717.599 232.082 754.592 196.154 764.171 195.331C768.229 194.983 772.286 195.992 775.704 198.205C781.226 201.775 784.086 207.65 784.086 213.572C784.086 218.52 782.086 223.492 777.994 227.154L718.995 279.953L693.896 302.412L662.682 330.353L659.509 323.909L648.778 302.076L646.709 297.858Z" fill="#D79131"/>
<path d="M784.507 256.604L719.981 276.305C730.784 279.339 735.307 344.959 725.254 346.997C725.254 346.997 832.193 354.579 826.358 346.997C819.245 337.755 828.784 276.332 833.333 276.305L784.507 256.604Z" fill="#A0616A"/>
<path d="M870.367 591L864.727 523.149C864.727 498.877 863.148 476.951 860.618 457.402C850.483 378.933 825.071 338.711 825.071 338.711H729.999C729.87 338.855 729.742 338.968 729.613 339.112L729.597 339.128C707.166 362.629 695.5 421.725 690.311 457.402C687.846 474.381 686.847 486.059 686.847 486.059L677.549 568.431L684.268 591H739.587L738.717 586.165L774.313 457.402L774.748 455.828L775.134 457.402L808.135 591L870.367 591Z" fill="#1D1D1D"/>
<path d="M731.948 217.463L752.037 177.037L768.965 147.666L782.653 133.76H820.116L823.604 147.666L844.529 159.255L851.931 217.199L825.561 342.918C794.173 317.423 729.478 310.362 729.478 310.362L718.995 279.953L712.067 243.32L711.229 238.94L731.948 217.463Z" fill="#D79131"/>
<path d="M729.538 290.593C716.533 290.225 706.181 283.239 706.416 274.99C706.651 266.74 717.383 260.35 730.388 260.718C736.08 260.879 741.265 262.309 745.275 264.557L800.359 266.805L798.751 292.551L744.619 287.602C740.487 289.62 735.23 290.754 729.538 290.593Z" fill="#A0616A"/>
<path d="M799.982 202.715L851.943 254.14L761.435 263.38L740.401 292.872L866.554 297.042C877.936 301.082 890.06 293.241 890.997 281.233C891.313 277.178 865.396 174.296 849.707 164.745C831.318 153.551 799.982 202.715 799.982 202.715Z" fill="#D79131"/>
<path d="M836.076 83.3001C836.454 59.9419 817.765 40.701 794.333 40.3244C770.902 39.9477 751.6 58.578 751.222 81.9362C750.844 105.294 769.533 124.535 792.965 124.912C816.397 125.289 835.698 106.658 836.076 83.3001Z" fill="#A0616A"/>
<path d="M886.794 214.412C885.731 218.428 877.448 220.5 875.514 225.656C869.359 229.158 872.694 200.55 870.213 198.67C868.295 197.241 867.78 200.694 867.344 197.722C865.701 186.575 854.953 189.064 846.993 187.265C846.09 185.514 845.398 183.812 844.946 182.157C844.141 179.169 840.467 178.125 838.291 180.326C837.308 179.459 836.599 176.39 835.906 173.322C835.407 171.09 834.907 168.857 834.327 167.443L828.784 154.978L830.573 164.263C826.947 162.962 823.289 164.311 821.178 159.845C818.471 154.111 817.392 147.396 819.358 141.373C821.146 135.911 824.16 124.972 827.56 115.912C823.708 118.691 819.084 120.715 813.718 121.727C815.619 118.129 817.553 114.467 818.359 110.467C819.148 106.467 818.665 102.018 816.119 98.8371C814.024 96.2188 810.93 96.8773 808.32 94.773C806.289 93.1346 804.533 88.9422 803.308 86.645C808.529 103.945 812.477 122.322 805.838 138.835C801.246 150.272 791.577 159.572 779.975 163.797C786.147 159.396 792.174 154.705 796.798 148.73C801.745 142.32 804.968 134.224 803.985 126.193C802.438 113.583 778.976 73.698 776.092 65.8592C777.671 73.5214 777.059 79.4969 772.901 82.7899C771.822 71.6742 759.672 72.686 753.049 68.2366C753.049 68.2366 747.925 39.3709 759.946 39.1942C765.747 39.1139 771.822 25.5244 777.091 23.0988C785.502 19.2276 790.659 21.862 799.989 22.1511C809.302 22.4241 818.246 26.4239 823.934 33.7648C826.915 37.6039 828.011 34.5519 832.49 36.9453C836.744 39.2103 839.613 37.106 844.431 37.2505C854.083 37.5076 863.445 42.6478 868.859 50.5991C874.273 58.5665 877.609 57.8275 875.466 70.1481C875.434 70.2926 875.434 70.5817 875.466 71.0155C876.642 90.4199 873.629 109.872 865.91 127.735C863.526 133.228 875.191 138.899 875.175 145.758C875.159 153.725 862.285 160.986 863.477 164.391C866.893 180.792 886.085 177.145 881.557 204.598C881.186 206.83 887.503 211.73 886.794 214.412Z" fill="#1D1D1D"/>
<path d="M769.24 164.184C769.594 164.071 769.949 163.943 770.303 163.798C769.852 164.119 769.417 164.425 768.966 164.746L769.24 164.184Z" fill="#1D1D1D"/>
<path d="M829.009 28.85C824.393 29.5338 819.704 21.8996 822.325 11.3129C828.036 20.0185 830.955 29.8188 831.415 40.5836L828.337 41.5342L829.009 28.85Z" fill="#D79131"/>
<path d="M852.593 18.9683C849.443 30.0947 833.447 37.5411 830.621 33.669L830.298 40.3041L828.32 37.768C834.057 29.2634 841.877 22.7394 852.593 18.9683Z" fill="#D79131"/>
<path d="M501.335 319.006C501.335 315.309 504.352 312.302 508.061 312.302H616.16C619.869 312.302 622.886 315.309 622.886 319.006C622.886 322.703 619.869 325.711 616.16 325.711H508.061C504.352 325.711 501.335 322.703 501.335 319.006Z" fill="#E6E7E8"/>
<path d="M501.335 363.983C501.335 360.287 504.352 357.279 508.061 357.279H616.16C619.869 357.279 622.886 360.287 622.886 363.983C622.886 367.68 619.869 370.688 616.16 370.688H508.061C504.352 370.688 501.335 367.68 501.335 363.983Z" fill="#E6E7E8"/>
<path d="M423.699 348.404C419.991 348.404 416.974 345.396 416.974 341.699C416.974 338.002 419.991 334.994 423.699 334.994H616.16C619.869 334.994 622.886 338.002 622.886 341.699C622.886 345.396 619.869 348.404 616.16 348.404H423.699Z" fill="#E6E7E8"/>
<path d="M409.391 284.234L396.13 277.972C401.569 285.539 406.256 297.357 408.765 306.761C413.014 298.001 419.863 287.283 426.642 280.88L412.626 284.475C421.262 242.28 453.747 211.988 490.946 211.988V208.776C452.09 208.776 418.21 240.336 409.391 284.234Z" fill="#1D1D1D"/>
<path d="M470.429 348.526H386.637C383.083 348.526 380.191 345.643 380.191 342.101C380.191 338.558 383.083 335.675 386.637 335.675H470.429C473.983 335.675 476.874 338.558 476.874 342.101C476.874 345.643 473.983 348.526 470.429 348.526Z" fill="#D79131"/>
<path d="M494.902 217.12C497.134 203.409 487.793 190.49 474.039 188.265C460.285 186.04 447.325 195.351 445.093 209.062C442.861 222.773 452.202 235.692 465.956 237.917C479.71 240.142 492.67 230.831 494.902 217.12Z" fill="#1D1D1D"/>
<path d="M333.03 31.0258C341.625 31.0258 348.592 24.0804 348.592 15.5129C348.592 6.94535 341.625 0 333.03 0C324.436 0 317.469 6.94535 317.469 15.5129C317.469 24.0804 324.436 31.0258 333.03 31.0258Z" fill="#E6E7E8"/>
<path d="M515.116 299.282C523.711 299.282 530.678 292.337 530.678 283.769C530.678 275.202 523.711 268.256 515.116 268.256C506.522 268.256 499.555 275.202 499.555 283.769C499.555 292.337 506.522 299.282 515.116 299.282Z" fill="#E6E7E8"/>
</g>
<defs>
<clipPath id="clip0_4003_921">
<rect width="891" height="591" fill="white"/>
</clipPath>
</defs>
</svg>
